<svg width="129" height="129" xmlns="http://www.w3.org/2000/svg" xmlns:xlink="http://www.w3.org/1999/xlink" xml:space="preserve" overflow="hidden"><defs><clipPath id="clip0"><rect x="559" y="279" width="129" height="129"/></clipPath></defs><g clip-path="url(#clip0)" transform="translate(-559 -279)"><path d="M623.5 338.125C616.781 338.125 611.406 332.75 611.406 326.031 611.406 319.312 616.781 313.938 623.5 313.938 630.219 313.938 635.594 319.312 635.594 326.031 635.594 332.75 630.219 338.125 623.5 338.125ZM623.5 297.812C614.228 297.812 605.494 302.381 600.253 310.175 595.013 317.834 593.938 327.644 597.297 336.378L610.062 364.597 621.081 387.709C621.484 388.65 622.425 389.188 623.5 389.188 624.575 389.188 625.516 388.65 625.919 387.709L636.938 364.597 649.703 336.378C653.062 327.644 651.987 317.834 646.747 310.175 641.506 302.381 632.772 297.812 623.5 297.812Z" stroke="#FF0000" stroke-width="1.34375" fill="#FF0000"/></g></svg>