<svg width="96" height="96" xmlns="http://www.w3.org/2000/svg" xmlns:xlink="http://www.w3.org/1999/xlink" xml:space="preserve" overflow="hidden"><defs><clipPath id="clip0"><rect x="0" y="-2" width="96" height="96"/></clipPath></defs><g clip-path="url(#clip0)" transform="matrix(1 0 0 1 0 2)"><path d="M48 42C43 42 39 38 39 33 39 28 43 24 48 24 53 24 57 28 57 33 57 38 53 42 48 42ZM48 12C41.1 12 34.6 15.4 30.7 21.2 26.8 26.9 26 34.2 28.5 40.7L38 61.7 46.2 78.9C46.5 79.6 47.2 80 48 80 48.8 80 49.5 79.6 49.8 78.9L58 61.7 67.5 40.7C70 34.2 69.2 26.9 65.3 21.2 61.4 15.4 54.9 12 48 12Z" stroke="#FFFFFF" stroke-width="3" fill="#FF0000"/></g></svg>