<svg width="96" height="96" xmlns="http://www.w3.org/2000/svg" xmlns:xlink="http://www.w3.org/1999/xlink" xml:space="preserve" overflow="hidden"><defs><clipPath id="clip0"><rect x="1120" y="229" width="96" height="96"/></clipPath></defs><g clip-path="url(#clip0)" transform="translate(-1120 -229)"><path d="M1168 273C1163 273 1159 269 1159 264 1159 259 1163 255 1168 255 1173 255 1177 259 1177 264 1177 269 1173 273 1168 273ZM1168 243C1161.1 243 1154.6 246.4 1150.7 252.2 1146.8 257.9 1146 265.2 1148.5 271.7L1158 292.7 1166.2 309.9C1166.5 310.6 1167.2 311 1168 311 1168.8 311 1169.5 310.6 1169.8 309.9L1178 292.7 1187.5 271.7C1190 265.2 1189.2 257.9 1185.3 252.2 1181.4 246.4 1174.9 243 1168 243Z" fill="#4472C4" fill-opacity="0.8"/></g></svg>